<?xml version="1.0" encoding="utf-8"?>
<!-- Generator: Adobe Illustrator 26.3.1, SVG Export Plug-In . SVG Version: 6.00 Build 0)  -->
<svg version="1.1" id="Calque_1" xmlns="http://www.w3.org/2000/svg" xmlns:xlink="http://www.w3.org/1999/xlink" x="0px" y="0px"
	 viewBox="0 0 500 796" style="enable-background:new 0 0 500 796;" xml:space="preserve">
<style type="text/css">
	.st0{fill:none;}
	.st1{fill:#FFFFFF;}
	.st2{fill:#737373;}
	.st3{fill:#FEAC43;}
</style>
<g id="Taille_personnalisée_1">
	<rect y="1.4" class="st0" width="500" height="796"/>
	<g id="Groupe_1" transform="translate(0.001 74.351)">
		<path id="Path" class="st1" d="M304.8,108c-7.3,0.8-14.7-1.2-20.7-5.5c-5.9-4.3-11-9.7-14.8-15.9c-6.8-10.3-11.7-21.7-14.5-33.7
			c-4.7,5.6-12.1,8.2-19.3,6.7c-11.5-2.6-18.3-16-16.1-27.5S231.2,11.4,242,6.7s22.8-5.4,34.6-5.4c7.8,0,15.6,0.4,22.9,3
			s14,8,16.5,15.3c1.6,4.6,1.6,9.7,3.4,14.1c3.3,8.2,12,12.6,20.2,16s17,6.8,21.8,14.2c5.4,8.4,3.9,20-2.1,28s-15.6,12.6-25.4,14.5
			s-19.8,1.5-29.8,1"/>
		<path id="Path-2" class="st2" d="M393.8,632.8l32.1-13.9L408.5,583l-25.9,15.2L393.8,632.8z"/>
		<path id="Path-3" class="st3" d="M275,448.9l31,63.1l54.7,111.3l56.4-27.1l-62.3-145.8l-0.2-18.4l-0.6-57.1L275,448.9z"/>
		<path id="Path-4" class="st2" d="M187,604.3l33,11.7l11.7-38.1l-29.3-6.6L187,604.3z"/>
		<path id="Path-5" class="st2" d="M194.4,272.5l99.7-28.6l-29.3-19.8l-77,24.2l-34.8,8.4c-9.2,2.2-14.9,11.5-12.7,20.7
			c0.2,1,0.6,2.1,1,3l0,0c3.9,8.7,14.1,12.5,22.7,8.6c0.4-0.2,0.8-0.4,1.2-0.6L194.4,272.5z"/>
		<path id="Path-6" class="st3" d="M258.1,224.9l40.3,23.5c3.6-29.3-14-81.5-35.9-138.5l0,0c-13.1,9.5-19.9,25.4-17.7,41.4
			L258.1,224.9z"/>
		<path id="Path-7" class="st2" d="M431.8,283.5l0.8,30.1c0.3,9.6,8.3,17.1,17.8,16.9c1.4,0,2.7-0.2,4-0.6l0,0
			c9.3-2.5,14.7-12,12.3-21.2c-0.3-0.9-0.6-1.8-1-2.7l-11.2-24.6l-35.2-83.5l-24.2,8.8L431.8,283.5z"/>
		<circle id="Path-8" class="st2" cx="268" cy="48.7" r="31.5"/>
		<path id="Path-9" class="st2" d="M269.1,115l36.6-17.6l-18.3-41l-30.8,5.9L269.1,115z"/>
		<path id="Path-10" class="st3" d="M292.6,263.8l74.8-18.3l-15-137.6c-1.4-13.1-13.1-22.7-26.2-21.5l-24.7,2.2L267.7,104
			l-12.5,13.2l3.8,16.3c-3.5,33.5-0.8,62.5,18.7,79.8L292.6,263.8z"/>
		<path id="Path-11" class="st3" d="M387.8,211.7l38.8-10.3l-52.1-86.2c-11.2-18.5-32-28.9-53.5-26.6l0,0l19.8,65.2
			C359.2,167.6,374.6,187.5,387.8,211.7z"/>
		<path id="Path-12" class="st3" d="M185.6,575l59.4,17.6c72.3-117.3,175.8-243.8,135.6-328.3l-14.7-34.4l-76.2,23.4l-4.4,90.9
			l-46.9,73.3L185.6,575z"/>
		<path id="Path-13" class="st1" d="M156.4,654.8l52.8-0.5c10.4-0.1,18.9-8.6,18.9-19V609c0-3.3-2.7-6.1-6-6.1
			c-0.6,0-1.2,0.1-1.8,0.3c-9.5,3.1-17.3,2-23.2-3.5c-3.5-3.3-3.9-4-8.1-1.6l-23.8,26l-9.7,0.6c-7.5,0.5-13.5,6.4-14,13.9l0,0
			c-0.6,8.3,5.6,15.5,13.9,16.1C155.6,654.7,156,654.8,156.4,654.8L156.4,654.8z"/>
		<path id="Path-14" class="st1" d="M406.2,690.1l36.9-37.7c7.3-7.4,7.3-19.4-0.1-26.8L424.4,607c-2.4-2.4-6.2-2.4-8.6,0
			c-0.4,0.4-0.8,0.9-1.1,1.5c-4.6,8.9-10.8,13.7-18.9,13.9c-4.8,0.1-5.6,0-6.9,4.6l1.6,35.2l-6.4,7.3c-5,5.6-5,14.1-0.1,19.8l0,0
			c5.4,6.3,14.9,7,21.2,1.6C405.7,690.7,405.9,690.4,406.2,690.1L406.2,690.1z"/>
		<path id="Path-15" class="st1" d="M269.3,41.3c-4.3,6.9-10.7,12.2-18.3,15.1c-5.4,2.1-12.1,2.6-16.2-1.5c-2.9-3-3.5-7.5-3.1-11.7
			c1.3-12.9,11-24.1,23-29s25.9-3.8,37.9,1.1c11.3,4.6,22.1,14.1,22.7,26.3c0.3,6.3-2,13.2,1.4,18.5c2.5,4,7.4,5.6,11.8,7.4
			s9.1,4.6,10,9.2c0.4,3.2-0.7,6.5-3,8.8c-2.3,2.2-5.1,4-8.1,5.1c-7.1,3-15,4.9-22.7,3.8s-15.1-5.9-18.1-13
			c-2.3-5.5-1.8-11.7-1.6-17.7s0.2-12.3-3-17.4s-10.6-7.9-15.4-4.3"/>
		<path id="Path-16" class="st1" d="M32.4,180.9l64.7,37.4c15.1-16.2,40.4-17,56.6-1.9s17,40.4,1.9,56.6s-40.4,17-56.6,1.9
			c-11.2-10.4-15.4-26.3-11-40.9l-16.6-9.6l-3.2,5.6c-2.5,4.3-8.1,5.7-12.4,3.2c-4.2-2.5-5.7-7.9-3.3-12.2l3.2-5.6l-11.2-6.5
			l-8.4,14.5c-2.5,4.4-8,5.9-12.3,3.4s-5.9-8-3.4-12.3c0-0.1,0.1-0.1,0.1-0.2l8.4-14.5l-5.6-3.2c-4.3-2.5-5.7-8.1-3.2-12.4
			C22.7,180,28.1,178.5,32.4,180.9z M115.3,264.6c10.5,6.1,23.9,2.5,30-8c6.1-10.5,2.5-23.9-8-30s-23.9-2.5-30,8
			C101.2,245.1,104.8,258.6,115.3,264.6L115.3,264.6z"/>
	</g>
</g>
</svg>
